<?xml version="1.0" encoding="utf-8"?>
<!-- Generator: Adobe Illustrator 26.5.0, SVG Export Plug-In . SVG Version: 6.00 Build 0)  -->
<svg version="1.1" id="Слой_1" xmlns="http://www.w3.org/2000/svg" xmlns:xlink="http://www.w3.org/1999/xlink" x="0px" y="0px"
	 viewBox="0 0 2000 500" style="enable-background:new 0 0 2000 500;" xml:space="preserve">
<style type="text/css">
	.st0{fill-rule:evenodd;clip-rule:evenodd;fill:#C59F5F;}
	.st1{fill-rule:evenodd;clip-rule:evenodd;fill:#C5A060;}
	.st2{opacity:0.897;fill-rule:evenodd;clip-rule:evenodd;fill:#CDA763;enable-background:new    ;}
	.st3{opacity:0.827;fill-rule:evenodd;clip-rule:evenodd;fill:#876E42;enable-background:new    ;}
	.st4{fill-rule:evenodd;clip-rule:evenodd;fill:#C5A05F;}
	.st5{opacity:3.100000e-02;fill-rule:evenodd;clip-rule:evenodd;fill:#79623B;enable-background:new    ;}
	.st6{opacity:0.792;fill-rule:evenodd;clip-rule:evenodd;fill:#866D41;enable-background:new    ;}
	.st7{opacity:0.2;fill-rule:evenodd;clip-rule:evenodd;fill:#735E39;enable-background:new    ;}
	.st8{fill-rule:evenodd;clip-rule:evenodd;fill:#C29E5E;}
	.st9{fill-rule:evenodd;clip-rule:evenodd;fill:#C6A060;}
	.st10{fill-rule:evenodd;clip-rule:evenodd;fill:#C7A160;}
	.st11{fill-rule:evenodd;clip-rule:evenodd;fill:#C8A261;}
	.st12{opacity:0.443;fill-rule:evenodd;clip-rule:evenodd;fill:#80683D;enable-background:new    ;}
	.st13{fill-rule:evenodd;clip-rule:evenodd;fill:#C9A361;}
	.st14{fill-rule:evenodd;clip-rule:evenodd;fill:#C39E5E;}
	.st15{fill-rule:evenodd;clip-rule:evenodd;fill:#C49F5F;}
	.st16{opacity:0.823;fill-rule:evenodd;clip-rule:evenodd;fill:#8D7245;enable-background:new    ;}
	.st17{fill-rule:evenodd;clip-rule:evenodd;fill:#CBA562;}
	.st18{fill-rule:evenodd;clip-rule:evenodd;fill:#CCA563;}
	.st19{opacity:0.37;fill-rule:evenodd;clip-rule:evenodd;fill:#846B40;enable-background:new    ;}
	.st20{opacity:0.816;fill-rule:evenodd;clip-rule:evenodd;fill:#8C7244;enable-background:new    ;}
	.st21{opacity:0.315;fill-rule:evenodd;clip-rule:evenodd;fill:#766038;enable-background:new    ;}
	.st22{opacity:0.106;fill-rule:evenodd;clip-rule:evenodd;fill:#725634;enable-background:new    ;}
	.st23{opacity:4.700000e-02;fill-rule:evenodd;clip-rule:evenodd;fill:#6B5734;enable-background:new    ;}
	.st24{opacity:3.800000e-02;fill-rule:evenodd;clip-rule:evenodd;fill:#6A5734;enable-background:new    ;}
	.st25{opacity:0.349;fill-rule:evenodd;clip-rule:evenodd;fill:#79633C;enable-background:new    ;}
	.st26{opacity:0.2;fill-rule:evenodd;clip-rule:evenodd;fill:#7A633C;enable-background:new    ;}
	.st27{opacity:0.243;fill-rule:evenodd;clip-rule:evenodd;fill:#7B653C;enable-background:new    ;}
	.st28{opacity:0.831;fill-rule:evenodd;clip-rule:evenodd;fill:#937848;enable-background:new    ;}
	.st29{opacity:0.973;fill-rule:evenodd;clip-rule:evenodd;fill:#9A7D4A;enable-background:new    ;}
	.st30{opacity:0.343;fill-rule:evenodd;clip-rule:evenodd;fill:#7C653C;enable-background:new    ;}
	.st31{opacity:9.000000e-02;fill-rule:evenodd;clip-rule:evenodd;fill:#7B643C;enable-background:new    ;}
	.st32{opacity:0.973;fill-rule:evenodd;clip-rule:evenodd;fill:#947948;enable-background:new    ;}
	.st33{opacity:0.973;fill-rule:evenodd;clip-rule:evenodd;fill:#8F7445;enable-background:new    ;}
	.st34{opacity:0.392;fill-rule:evenodd;clip-rule:evenodd;fill:#7A623A;enable-background:new    ;}
	.st35{opacity:0.216;fill-rule:evenodd;clip-rule:evenodd;fill:#79623A;enable-background:new    ;}
	.st36{opacity:0.235;fill-rule:evenodd;clip-rule:evenodd;fill:#79623A;enable-background:new    ;}
	.st37{opacity:0.227;fill-rule:evenodd;clip-rule:evenodd;fill:#755D39;enable-background:new    ;}
	.st38{opacity:0.268;fill-rule:evenodd;clip-rule:evenodd;fill:#765F38;enable-background:new    ;}
	.st39{opacity:0.95;fill-rule:evenodd;clip-rule:evenodd;fill:#987B49;enable-background:new    ;}
	.st40{opacity:0.272;fill-rule:evenodd;clip-rule:evenodd;fill:#78613A;enable-background:new    ;}
	.st41{opacity:0.274;fill-rule:evenodd;clip-rule:evenodd;fill:#796239;enable-background:new    ;}
	.st42{fill-rule:evenodd;clip-rule:evenodd;fill:#CCA663;}
	.st43{opacity:0.949;fill-rule:evenodd;clip-rule:evenodd;fill:#957948;enable-background:new    ;}
	.st44{opacity:0.274;fill-rule:evenodd;clip-rule:evenodd;fill:#7C643C;enable-background:new    ;}
	.st45{opacity:0.275;fill-rule:evenodd;clip-rule:evenodd;fill:#735D37;enable-background:new    ;}
	.st46{opacity:0.272;fill-rule:evenodd;clip-rule:evenodd;fill:#786038;enable-background:new    ;}
	.st47{opacity:0.842;fill-rule:evenodd;clip-rule:evenodd;fill:#8E7345;enable-background:new    ;}
	.st48{opacity:0.973;fill-rule:evenodd;clip-rule:evenodd;fill:#957948;enable-background:new    ;}
	.st49{fill-rule:evenodd;clip-rule:evenodd;fill:#B39157;}
</style>
<g>
	<path class="st0" d="M960.2,15.2c108.8,49.6,217.6,99.3,326.4,149.2c11.9,3.5,24.2,5.2,36.6,5.2c6.6,10.5,3.7,16-8.7,16.6
		c-19.2-0.9-37.2-5.8-54.1-14.8c-101-47.3-202.2-94.1-303.7-140.5C951.6,24.2,952.7,19,960.2,15.2z"/>
</g>
<g>
	<path class="st1" d="M1007.4,93.7c-0.6,0-1.2,0-1.7,0c0-1.2-0.6-1.7-1.7-1.7c-14.6-6.9-29.4-13.3-44.5-19.2
		C934.2,83,909.5,94.1,885.2,106c-78.5,36.3-157,72.7-235.6,109.1c-16.8,7.5-34.3,9.5-52.4,6.1c-2.7-4.9-2.1-9.2,1.7-13.1
		c19.9,0.2,38.5-4.5,55.8-14c94.5-43.5,188.7-87.4,282.7-131.8c-6.5-4.2-13.5-6.8-20.9-7.9c-93.5,42.9-187.1,85.4-281,127.4
		c-11.4,3.7-23,4.8-34.9,3.5c-6.3-4.4-6.8-9.6-1.7-15.7c12.5-0.2,24.7-1.9,36.6-5.2c94.5-42.9,188.8-86.2,282.7-130
		c125.5,57.2,251.1,113.9,377,170.2c9.2,1.8,18.5,3,27.9,3.5c4.7,4.7,4.7,9.3,0,14c-19,2.9-37,0-54.1-8.7
		C1182,172.9,1094.8,133.1,1007.4,93.7z"/>
</g>
<g>
	<path class="st2" d="M955,137.4c1.3-0.2,2.5,0.1,3.5,0.9c4.9,6.6,10.4,12.7,16.6,18.3c1.2,1.7,1.2,3.5,0,5.2
		c-1.8-1.8-3.9-2.1-6.1-0.9c5,4.7,9.6,9.6,14,14.8c-2.7,0.7-5.6,1-8.7,0.9c6,4.8,10.4,10.3,13.1,16.6c-8.3-2-16.7-2.3-25.3-0.9
		c1.5,2.4,2.1,5,1.7,7.9c-4.7,0-9.3,0-14,0c-0.1-2.5,0.4-4.8,1.7-7c-8.5-2.3-17-2.3-25.3,0c2.7-6.3,7-11.8,13.1-16.6
		c-3.2,0.1-6.1-0.2-8.7-0.9c4.3-5.2,9-10.2,14-14.8c-2.8-0.1-5.1-0.4-7-0.9C943.4,152.4,949.3,144.9,955,137.4z"/>
</g>
<g>
	<path class="st3" d="M366.9,268.3c-12.8-0.2-25.6,0.3-38.4,1.7c7.1-2.6,14.6-3.8,22.7-3.5C356.7,266.5,361.9,267.1,366.9,268.3z"/>
</g>
<g>
	<path class="st4" d="M366.9,268.3c0.6,0,1.2,0,1.7,0c3.5,2.5,7.6,3.6,12.2,3.5c6.4,2.2,12.5,5.1,18.3,8.7c0.2,8.3-2.2,15.8-7,22.7
		c-19.6-16.1-41.5-19.8-65.4-11.3c-13.8,8.3-22.6,20.2-26.2,35.8c-4.7,11.6-4.7,23.3,0,34.9c4.1,27.7,20.1,42.2,48,43.6
		c10.1-0.6,19.7-2.9,28.8-7c3.4-11.5,4.6-23.7,3.5-36.6c-12.2,0-24.4,0-36.6,0c0-5.8,0-11.6,0-17.5c18.9-1.7,38.1-2.3,57.6-1.7
		c0.6,22.1,0,44.2-1.7,66.3c-10.9,8.3-23.1,13.5-36.6,15.7c-13.4,0.3-26.8-0.3-40.1-1.7c-21.3-6.5-35.6-20.5-42.8-41.9
		c-8.1-29.2-5.2-57.1,8.7-83.8c10-13.8,23.1-23.1,39.3-27.9C341.2,268.6,354,268,366.9,268.3z"/>
</g>
<g>
	<path class="st5" d="M368.6,268.3c4.6-0.2,8.7,1,12.2,3.5C376.2,271.9,372.1,270.8,368.6,268.3z"/>
</g>
<g>
	<path class="st6" d="M492.5,270c-19.8,0-39.6,0-59.3,0c0,4.7,0,9.3,0,14c-1.7-4.9-2.3-10.1-1.7-15.7
		C452.1,267.7,472.5,268.3,492.5,270z"/>
</g>
<g>
	<path class="st7" d="M1056.2,270c24.1-1.7,48.6-2.3,73.3-1.7c0,6.4,0,12.8,0,19.2c-8.7,0-17.5,0-26.2,0c7.8-1.7,15.9-2.3,24.4-1.7
		c0-5.2,0-10.5,0-15.7C1103.9,270,1080.1,270,1056.2,270z"/>
</g>
<g>
	<path class="st8" d="M1777,364.3c1.3,8.1,1.9,16.2,1.7,24.4c-4.9,20.3-17.7,32.8-38.4,37.5c-21.6,3.5-42,0-61.1-10.5
		c-2.3-1.4-3.4-3.4-3.5-6.1c1.5-7.3,3.5-14.2,6.1-20.9c19.6,17.1,41.4,20.9,65.4,11.3c12.5-11.3,13.1-22.9,1.7-34.9
		c-15.4-7.1-31.1-13.5-47.1-19.2c-20.9-12.4-27.1-30.2-18.3-53.2c15.3-22.4,36.5-30.8,63.7-25.3c10.2,1,18.9,4.8,26.2,11.3
		c-1.1,7.4-3.1,14.3-6.1,20.9c-13.4-9.3-28.3-13.1-44.5-11.3c-18.4,4.9-23.7,15.9-15.7,33.2c16.4,8,33.3,15,50.6,20.9
		C1766.5,347.9,1772.8,355.2,1777,364.3z"/>
</g>
<g>
	<path class="st9" d="M492.5,270c33.4,7.5,45.4,27.9,35.8,61.1c-6.5,12.1-16.1,20.8-28.8,26.2c15.3,22.6,31.6,44.4,48.9,65.4
		c-9.6,2.8-19.5,3.4-29.7,1.7c-14.3-21.2-28.5-42.5-42.8-63.7c-6.5-1.7-13.2-2.3-20.1-1.7c0.2,21.9,0.2,43.4,0,64.6
		c-7.6,0-15.1,0-22.7,0c0-4.7,0-9.3,0-14c0-41.9,0-83.8,0-125.7c0-4.7,0-9.3,0-14C453,270,472.7,270,492.5,270z M455.9,287.5
		c9.3-0.3,18.6,0,27.9,0.9c22.5,4.1,29.8,17.2,21.8,39.3c-5.9,6.6-13.2,10.7-21.8,12.2c-9.3,0-18.6,0-27.9,0
		C455.9,322.4,455.9,304.9,455.9,287.5z"/>
</g>
<g>
	<path class="st10" d="M874.7,364.3c1.3,8.1,1.9,16.2,1.7,24.4c-4.4,20.7-17.2,32.4-38.4,34.9c-20.9,0-41.9,0-62.8,0
		c0-5.8,0-11.6,0-17.5c0.5-45.5,0-90.8-1.7-136.1c21.2-2,42.7-2.3,64.6-0.9c25.7,5.8,35.9,21.7,30.5,48
		c-3.7,10.1-10.4,17.3-20.1,21.8C861.2,343.5,869.9,351.9,874.7,364.3z M796.2,287.5c12.9-0.4,25.7,0.2,38.4,1.7
		c12.7,8.4,15.3,19.4,7.9,33.2c-3,3.7-6.8,6.3-11.3,7.9c-11.6,2-23.2,2.9-34.9,2.6C796.2,317.7,796.2,302.6,796.2,287.5z M796.2,352
		c16-1,31.7,0.4,47.1,4.4c10.7,10.6,13.3,23.1,7.9,37.5c-3.4,4.5-7.7,7.7-13.1,9.6c-13.8,2.4-27.8,3.3-41.9,2.6
		C796.2,388.1,796.2,370.1,796.2,352z"/>
</g>
<g>
	<path class="st11" d="M1339,270c0.6,0,1.2,0,1.7,0c3.5,2.5,7.6,3.6,12.2,3.5c28.8,11.6,43.4,33.1,43.6,64.6
		c-1,9.3-1.6,18.6-1.7,27.9c-5.6,31.8-24.2,51-55.8,57.6c-20.9,0-41.9,0-62.8,0c0-3.5,0-7,0-10.5c0-47.7,0-95.4,0-143.1
		C1297.1,270,1318,270,1339,270z M1298.8,287.5c15.3-0.7,30.5,0.7,45.4,4.4c12.7,5.4,21.4,14.4,26.2,27.1c0.3,5.6,1.5,10.9,3.5,15.7
		c4.6,47.8-16.9,71.6-64.6,71.6c-3.1-1.7-6.6-2.3-10.5-1.7C1298.8,365.4,1298.8,326.4,1298.8,287.5z"/>
</g>
<g>
	<path class="st12" d="M1340.7,270c4.6-0.2,8.7,1,12.2,3.5C1348.3,273.7,1344.2,272.5,1340.7,270z"/>
</g>
<g>
	<path class="st11" d="M1606,270c9.8,0.3,18.5,3.5,26.2,9.6c4.6,4.9,8.1,10.4,10.5,16.6c1.3,8.7,1.9,17.4,1.7,26.2
		c-0.8,8-4,15-9.6,20.9c-6.2,6.2-13.5,10.8-21.8,14c16.1,21.3,31.9,42.8,47.1,64.6c-8.4,1.7-17.1,2.3-26.2,1.7
		c-15.4-20.2-29.9-41.2-43.6-62.8c-6.3-1.7-12.7-2.3-19.2-1.7c-1.7,21.2-2.3,42.7-1.7,64.6c-7.6,0-15.1,0-22.7,0c-2-1.5-2-3.2,0-5.2
		c1.7-49.1,2.3-98.6,1.7-148.3C1567.6,270,1586.8,270,1606,270z M1571.1,287.5c15.1-1.2,29.6,0.8,43.6,6.1c3.4,2.5,5.7,5.7,7,9.6
		c2.3,7,2.3,14,0,20.9c-5.1,8.6-12.7,13.8-22.7,15.7c-9.3,0-18.6,0-27.9,0C1571.1,322.4,1571.1,304.9,1571.1,287.5z"/>
</g>
<g>
	<path class="st13" d="M133,270c7,0,14,0,20.9,0c-0.6,33.5,0,66.6,1.7,99.5c0,28.3,14,40.8,41.9,37.5c16.5-2.3,25.2-11.9,26.2-28.8
		c1.4-3.7,2.3-7.8,2.6-12.2c0.9-31.4,1.2-62.8,0.9-94.2c6.4,0,12.8,0,19.2,0c0,35.5,0,71,0,106.5c-1.5,25.9-14.9,41.6-40.1,47.1
		c-12.8,0.2-25.6-0.3-38.4-1.7c-19.3-6.5-30.3-19.9-33.2-40.1C135.2,345.6,134.7,307.8,133,270z"/>
</g>
<g>
	<path class="st14" d="M656.6,385.2c-10.5-1.2-21.2-1.7-32.3-1.7c-11.4,0-22.2,1.2-32.3,3.5c-3,12.5-7.1,24.8-12.2,36.6
		c-3.8,0.6-7.6,1.2-11.3,1.7c-4.7,0.2-9.1-0.7-13.1-2.6c19.6-50.6,38.5-101.5,56.7-152.7c8.3-2.3,16.8-2.3,25.3,0
		c18.3,51.3,37.5,102.2,57.6,152.7c-7.8,2.8-16,3.4-24.4,1.7C665.1,411.7,660.5,398.6,656.6,385.2z M623.4,297.9
		c2.8,2.8,4.9,6.3,6.1,10.5c6,19.2,12.7,38.1,20.1,56.7c-16.3,1.5-32.6,1.2-48.9-0.9C609,342.4,616.5,320.3,623.4,297.9z"/>
</g>
<g>
	<path class="st15" d="M1000.4,371.2c1.7-33.4,2.3-67.2,1.7-101.2c7,0,14,0,20.9,0c0,4.1,0,8.1,0,12.2c0,1.7,0,3.5,0,5.2
		c-1.3,34-2.5,68.4-3.5,103c-2.5,12.1-8.9,21.7-19.2,28.8c-5.9,3.6-12.3,5.7-19.2,6.1c-14.2,0.7-28.1-0.5-41.9-3.5
		c-15.7-6.4-25.3-18.1-28.8-34.9c-1.9-38.4-3.4-76.8-4.4-115.2c0.4-1,0.9-1.9,1.7-2.6c8-1.4,15.9-1.1,23.6,0.9
		c0.6,37.2,1.2,74.5,1.7,111.7c2.7,14.3,11.1,22.7,25.3,25.3C985.5,410.5,999.5,398.6,1000.4,371.2z"/>
</g>
<g>
	<path class="st16" d="M1023.1,282.2c0-4.1,0-8.1,0-12.2c-7,0-14,0-20.9,0c0.6,34,0,67.8-1.7,101.2c0-34.3,0-68.6,0-103
		c8.1,0,16.3,0,24.4,0C1025.3,273.3,1024.8,278,1023.1,282.2z"/>
</g>
<g>
	<path class="st17" d="M1056.2,270c23.9,0,47.7,0,71.6,0c0,5.2,0,10.5,0,15.7c-8.5-0.6-16.6,0-24.4,1.7c0,39.6,0,79.1,0,118.7
		c7.8,1.7,15.9,2.3,24.4,1.7c0,5.2,0,10.5,0,15.7c-23.9,0-47.7,0-71.6,0c0-5.2,0-10.5,0-15.7c8.7,0,17.5,0,26.2,0
		c0-40.7,0-81.4,0-122.2c-8.7,0-17.5,0-26.2,0C1056.2,280.5,1056.2,275.3,1056.2,270z"/>
</g>
<g>
	<path class="st18" d="M1515.2,270c2.3,5.8,2.3,11.6,0,17.5c-22.7,0-45.4,0-68.1,0c0,15.7,0,31.4,0,47.1c19.8,0,39.6,0,59.3,0
		c0,5.8,0,11.6,0,17.5c-19.8,0-39.6,0-59.3,0c0,18,0,36.1,0,54.1c23.3,0,46.5,0,69.8,0c0,5.8,0,11.6,0,17.5c-30.2,0-60.5,0-90.8,0
		c0-4.1,0-8.1,0-12.2c0-47.1,0-94.2,0-141.4C1455.9,270,1485.5,270,1515.2,270z"/>
</g>
<g>
	<path class="st19" d="M796.2,287.5c11.9-2,24.1-2.3,36.6-0.9c1,0.7,1.6,1.5,1.7,2.6C821.9,287.7,809.1,287.1,796.2,287.5z"/>
</g>
<g>
	<path class="st20" d="M455.9,287.5c0,17.5,0,34.9,0,52.4c9.3,0,18.6,0,27.9,0c-9.6,1.7-19.4,2.3-29.7,1.7
		C453.5,323.2,454.1,305.2,455.9,287.5z"/>
</g>
<g>
	<path class="st21" d="M1056.2,285.7c8.7,0,17.5,0,26.2,0c0,40.7,0,81.4,0,122.2c-8.7,0-17.5,0-26.2,0c7.8-1.7,15.9-2.3,24.4-1.7
		c0-39.6,0-79.1,0-118.7C1072.2,288,1064,287.4,1056.2,285.7z"/>
</g>
<g>
	<path class="st22" d="M1298.8,287.5c0,39,0,78,0,116.9c3.9-0.5,7.4,0.1,10.5,1.7c-4.1,0-8.1,0-12.2,0
		C1296.5,366.3,1297.1,326.7,1298.8,287.5z"/>
</g>
<g>
	<path class="st23" d="M1571.1,287.5c0,17.5,0,34.9,0,52.4c9.3,0,18.6,0,27.9,0c-9.6,1.7-19.4,2.3-29.7,1.7
		C1568.7,323.2,1569.3,305.2,1571.1,287.5z"/>
</g>
<g>
	<path class="st24" d="M1515.2,270c-29.7,0-59.3,0-89,0c0,47.1,0,94.2,0,141.4c-0.6,0-1.2,0-1.7,0c0-47.7,0-95.4,0-143.1
		C1455,267.7,1485.3,268.3,1515.2,270z"/>
</g>
<g>
	<path class="st25" d="M773.5,270c1.7,45.3,2.3,90.7,1.7,136.1c-0.6,0-1.2,0-1.7,0C773.4,360.4,773.4,315,773.5,270z"/>
</g>
<g>
	<path class="st26" d="M1339,270c-20.9,0-41.9,0-62.8,0c0,47.7,0,95.4,0,143.1c-0.6,0-1.2,0-1.7,0c0.6-47.5,0-95-1.7-142.2
		c11.1-2,22.4-2.9,34-2.6C1317.7,268.3,1328.5,268.9,1339,270z"/>
</g>
<g>
	<path class="st27" d="M1606,270c-19.2,0-38.4,0-57.6,0c0.6,49.7,0,99.2-1.7,148.3c0.6-48.9,0-97.8-1.7-146.6c0.4-1,0.9-1.9,1.7-2.6
		C1566.7,267.7,1586.5,268,1606,270z"/>
</g>
<g>
	<path class="st28" d="M1023.1,287.5c0.3,32,0,64-0.9,96c-0.4,2.7-1.2,5-2.6,7C1020.6,355.8,1021.7,321.5,1023.1,287.5z"/>
</g>
<g>
	<path class="st29" d="M1621.7,303.2c2.6,2.8,3.7,6.3,3.5,10.5c0.2,4.2-0.9,7.6-3.5,10.5C1624,317.1,1624,310.2,1621.7,303.2z"/>
</g>
<g>
	<path class="st30" d="M1642.6,296.2c2.6,4.7,3.8,9.9,3.5,15.7c0,3.8-0.6,7.3-1.7,10.5C1644.5,313.6,1643.9,304.9,1642.6,296.2z"/>
</g>
<g>
	<path class="st31" d="M1370.4,318.9c2.8,4.7,4,9.9,3.5,15.7C1371.8,329.8,1370.7,324.5,1370.4,318.9z"/>
</g>
<g>
	<path class="st32" d="M300.5,327.6c-2.2,11.6-2.2,23.3,0,34.9C295.9,350.9,295.9,339.2,300.5,327.6z"/>
</g>
<g>
	<path class="st33" d="M1396.5,338.1c1.7,9.4,1.2,18.7-1.7,27.9C1394.9,356.7,1395.5,347.4,1396.5,338.1z"/>
</g>
<g>
	<path class="st34" d="M344.2,345.1c0,5.8,0,11.6,0,17.5c12.2,0,24.4,0,36.6,0c1.1,12.9-0.1,25.2-3.5,36.6
		c1.7-11.5,2.3-23.1,1.7-34.9c-12.2,0-24.4,0-36.6,0C341.9,357.5,342.5,351.1,344.2,345.1z"/>
</g>
<g>
	<path class="st35" d="M874.7,364.3c2.6,4.4,3.7,9.3,3.5,14.8c0,3.5-0.6,6.7-1.7,9.6C876.6,380.5,876,372.3,874.7,364.3z"/>
</g>
<g>
	<path class="st36" d="M1777,364.3c2.6,4.4,3.7,9.3,3.5,14.8c0,3.5-0.6,6.7-1.7,9.6C1778.9,380.5,1778.3,372.3,1777,364.3z"/>
</g>
<g>
	<path class="st37" d="M656.6,385.2c-21.7-0.5-43.2,0-64.6,1.7c10.1-2.3,20.9-3.5,32.3-3.5C635.4,383.5,646.1,384,656.6,385.2z"/>
</g>
<g>
	<path class="st38" d="M433.2,409.6c0,4.7,0,9.3,0,14c7.6,0,15.1,0,22.7,0c-7.8,1.7-15.9,2.3-24.4,1.7
		C430.9,419.7,431.5,414.5,433.2,409.6z"/>
</g>
<g>
	<path class="st39" d="M773.5,406.1c0.6,0,1.2,0,1.7,0c0,5.8,0,11.6,0,17.5c20.9,0,41.9,0,62.8,0c-7.3,1.5-14.8,2.7-22.7,3.5
		c-13.9-1.3-27.9-2.2-41.9-2.6C772.9,418.6,772.9,412.5,773.5,406.1z"/>
</g>
<g>
	<path class="st40" d="M1103.3,406.1c8.7,0,17.5,0,26.2,0c0,6.4,0,12.8,0,19.2c-24.7,0.6-49.2,0-73.3-1.7c23.9,0,47.7,0,71.6,0
		c0-5.2,0-10.5,0-15.7C1119.3,408.4,1111.1,407.9,1103.3,406.1z"/>
</g>
<g>
	<path class="st41" d="M1183.6,270c1.7,44.5,2.3,89.3,1.7,134.4c22.7,0.4,45.4-0.1,68.1-1.7c0,7.6,0,15.1,0,22.7
		c-31.7,0.8-63.1,0-94.2-2.6c2.3-50.6,2.3-101.2,0-151.8c4-1.9,8.4-2.8,13.1-2.6C1176.4,268.3,1180.2,268.9,1183.6,270z"/>
</g>
<g>
	<path class="st42" d="M1183.6,270c0,45.4,0,90.8,0,136.1c22.7,0,45.4,0,68.1,0c0,5.8,0,11.6,0,17.5c-29.7,0-59.3,0-89,0
		c0-51.2,0-102.4,0-153.6C1169.7,270,1176.6,270,1183.6,270z"/>
</g>
<g>
	<path class="st43" d="M1274.4,413.1c0.6,0,1.2,0,1.7,0c0,3.5,0,7,0,10.5c20.9,0,41.9,0,62.8,0c-6.4,1.3-13.1,2.5-20.1,3.5
		c-14.8-1.4-29.6-2.3-44.5-2.6C1273.9,421.1,1273.9,417.3,1274.4,413.1z"/>
</g>
<g>
	<path class="st44" d="M1515.2,287.5c-21.8,1.7-43.9,2.3-66.3,1.7c0,14.5,0,29.1,0,43.6c19.8,0,39.6,0,59.3,0c0,7,0,14,0,20.9
		c-19.8,0-39.6,0-59.3,0c0,16.9,0,33.7,0,50.6c23.3,0.5,46.6-0.1,69.8-1.7c0,7.6,0,15.1,0,22.7c-31.4,0-62.8,0-94.2,0
		c0-4.7,0-9.3,0-14c0.6,0,1.2,0,1.7,0c0,4.1,0,8.1,0,12.2c30.2,0,60.5,0,90.8,0c0-5.8,0-11.6,0-17.5c-23.3,0-46.5,0-69.8,0
		c0-18,0-36.1,0-54.1c19.8,0,39.6,0,59.3,0c0-5.8,0-11.6,0-17.5c-19.8,0-39.6,0-59.3,0c0-15.7,0-31.4,0-47.1
		C1469.8,287.5,1492.5,287.5,1515.2,287.5z"/>
</g>
<g>
	<path class="st45" d="M1571.1,359c0,22.1,0,44.2,0,66.3c-8.5,0.6-16.6,0-24.4-1.7c7.6,0,15.1,0,22.7,0
		C1568.7,401.8,1569.3,380.2,1571.1,359z"/>
</g>
<g>
	<path class="st46" d="M1660.1,421.9c0.9,0.1,1.5,0.7,1.7,1.7c-9.6,2.3-18.9,2.3-27.9,0C1643,424.2,1651.7,423.6,1660.1,421.9z"/>
</g>
<g>
	<path class="st47" d="M323.2,423.6c13.3,1.4,26.7,2,40.1,1.7c-5.2,1.2-10.7,1.7-16.6,1.7C338.5,427.4,330.6,426.3,323.2,423.6z"/>
</g>
<g>
	<path class="st48" d="M939.3,421.9c13.8,3,27.7,4.2,41.9,3.5c-10.2,2-20.6,2.3-31.4,0.9C945.9,425.2,942.4,423.8,939.3,421.9z"/>
</g>
<g>
	<path class="st49" d="M590.2,462c240.8-0.3,481.7,0,722.5,0.9c3.8,2.3,4.3,5.2,1.7,8.7c-242,1.2-484,1.2-726,0
		C586.2,467.8,586.7,464.6,590.2,462z"/>
</g>
</svg>
